<?xml version="1.0" encoding="utf-8"?>
<!-- Generator: Adobe Illustrator 23.0.5, SVG Export Plug-In . SVG Version: 6.00 Build 0)  -->
<svg version="1.1" id="Capa_1" xmlns="http://www.w3.org/2000/svg" xmlns:xlink="http://www.w3.org/1999/xlink" x="0px" y="0px"
	 viewBox="0 0 224.87 166.43" style="enable-background:new 0 0 224.87 166.43;" xml:space="preserve">
<style type="text/css">
	.st0{fill:#F8F7CA;stroke:#000000;stroke-linecap:round;stroke-miterlimit:10;}
</style>
<path class="st0" d="M31.16,112.5L8.09,30.35c-1.5-5.35,2.49-10.66,8.05-10.7l163.35-1.17c5.38-0.04,9.41,4.9,8.3,10.16
	l-17.66,83.59c-0.82,3.9-4.27,6.69-8.26,6.68l-122.62-0.28C35.48,118.64,32.17,116.13,31.16,112.5z"/>
<path class="st0" d="M174.83,127.32H3.32C1.49,127.32,0,125.83,0,124v0c0-1.83,1.49-3.32,3.32-3.32h171.51
	c1.83,0,3.32,1.49,3.32,3.32v0C178.15,125.83,176.66,127.32,174.83,127.32z"/>
<path class="st0" d="M170.23,120.68L195.2,4.91c0.38-1.79,1.88-2.99,3.34-2.68l3.39,0.73c1.46,0.31,2.34,2.02,1.96,3.81
	L178.7,124.55c-0.38,1.79-1.88,2.99-3.34,2.68l-2.6-0.09"/>
<path class="st0" d="M195.25,5.47c0-1.83,1.49-3.32,3.32-3.32l22.99,0c1.83,0,3.32,1.49,3.32,3.32v4.25c0,1.83-1.49,3.32-3.32,3.32
	h-19"/>
<circle class="st0" cx="56.62" cy="147.75" r="18.68"/>
<circle class="st0" cx="145.72" cy="147.75" r="18.68"/>
</svg>
