<?xml version="1.0" encoding="utf-8"?>
<!-- Generator: Adobe Illustrator 23.0.5, SVG Export Plug-In . SVG Version: 6.00 Build 0)  -->
<svg version="1.1" id="Capa_1" xmlns="http://www.w3.org/2000/svg" xmlns:xlink="http://www.w3.org/1999/xlink" x="0px" y="0px"
	 viewBox="0 0 124.94 124.94" style="enable-background:new 0 0 124.94 124.94;" xml:space="preserve">
<style type="text/css">
	.st0{fill:#F8F7CA;}
</style>
<path class="st0" d="M62.47,0C27.97,0,0,27.97,0,62.47s27.97,62.47,62.47,62.47c34.5,0,62.47-27.97,62.47-62.47S96.97,0,62.47,0z
	 M62.47,13.05c4.69,0,8.49,3.8,8.49,8.49s-3.8,8.49-8.49,8.49s-8.49-3.8-8.49-8.49S57.78,13.05,62.47,13.05z M71.56,103.58
	c0,4.58-3.75,8.33-8.33,8.33H61.7c-4.58,0-8.33-3.75-8.33-8.33V43.31c0-4.58,3.75-8.33,8.33-8.33h1.53c4.58,0,8.33,3.75,8.33,8.33
	V103.58z"/>
</svg>
